<?xml version="1.0" encoding="iso-8859-1"?>
<!-- Generator: Adobe Illustrator 19.0.0, SVG Export Plug-In . SVG Version: 6.00 Build 0)  -->
<svg version="1.1" id="Capa_1" xmlns="http://www.w3.org/2000/svg" xmlns:xlink="http://www.w3.org/1999/xlink" x="0px" y="0px"
	 viewBox="0 0 480 480" style="enable-background:new 0 0 480 480;" xml:space="preserve">
<path style="fill:#3581C4;" d="M472,328h-32H80c-39.765,0-72,32.235-72,72s32.235,72,72,72h392C442.934,428.4,442.934,371.6,472,328
	z"/>
<g>
	<path style="fill:#97DAF7;" d="M440,248H32c-13.255,0-24,10.745-24,24v32c0,13.255,10.745,24,24,24h48h360
		C421.292,304.614,421.292,271.385,440,248z"/>
	<path style="fill:#97DAF7;" d="M32,200c-13.255,0-24,10.745-24,24s10.745,24,24,24h408h32v-48h-16H80H32z"/>
</g>
<path style="fill:#FFEBDB;" d="M456,88H80c-30.928,0-56,25.072-56,56c0,30.928,25.072,56,56,56h376
	C436.171,165.299,436.171,122.7,456,88z"/>
<path style="fill:#3581C4;" d="M472,8H72C58.745,8,48,18.745,48,32v32c0,13.255,10.745,24,24,24h8h376h16
	C453.292,64.614,453.292,31.385,472,8z"/>
<path d="M472,192h-11.016c-15.47-30.038-15.47-65.962,0-96H472c3.078,0,5.875-1.762,7.211-4.535c1.328-2.77,0.961-6.063-0.961-8.461
	c-16.492-20.609-16.492-49.398,0-70.008c1.922-2.398,2.289-5.691,0.961-8.461C477.875,1.762,475.078,0,472,0H72
	C54.352,0,40,14.355,40,32v32c0,9.244,4,17.518,10.288,23.365C29.93,98.089,16,119.436,16,144c0,19.121,8.473,36.262,21.81,48H32
	c-17.648,0-32,14.355-32,32c0,9.603,4.338,18.13,11.058,24C4.338,253.87,0,262.397,0,272v32c0,17.645,14.352,32,32,32h0.205
	C12.702,350.603,0,373.816,0,400c0,44.113,35.891,80,80,80h392c2.953,0,5.664-1.625,7.055-4.227s1.234-5.758-0.398-8.211
	c-27.367-41.043-27.367-94.082,0-135.125c1.633-2.453,1.789-5.609,0.398-8.211S474.953,320,472,320h-27.762
	c-13.568-19.352-13.568-44.648,0-64H472c4.422,0,8-3.582,8-8v-48C480,195.582,476.422,192,472,192z M72,80c-8.82,0-16-7.176-16-16
	V32c0-8.824,7.18-16,16-16h385.422c-10.094,20.184-10.094,43.816,0,64H72z M32,144c0-26.469,21.531-48,48-48h363.139
	c-13.181,30.54-13.181,65.46,0,96H80C53.531,192,32,170.469,32,144z M457.953,464H80c-35.289,0-64-28.711-64-64s28.711-64,64-64h8
	h369.953C436.852,376.117,436.852,423.883,457.953,464z M425.496,320H88h-8H32c-8.82,0-16-7.176-16-16v-32c0-8.824,7.18-16,16-16
	h393.496C415.389,276.193,415.389,299.807,425.496,320z M464,240H32c-8.82,0-16-7.176-16-16s7.18-16,16-16h432V240z"/>
<path d="M32,400c0,26.469,21.531,48,48,48h352v-16H80v-64h352v-16H80C53.531,352,32,373.531,32,400z M64,427.549
	c-9.519-5.551-16-15.758-16-27.549s6.481-21.999,16-27.549V427.549z"/>
<path d="M40,144c0,22.055,17.945,40,40,40h344v-16H88v-48h336v-16H80C57.945,104,40,121.945,40,144z M56,144
	c0-10.416,6.708-19.213,16-22.526v45.051C62.708,163.212,56,154.416,56,144z"/>
<path d="M32,272v32c0,4.418,3.578,8,8,8h368v-16H48v-16h360v-16H40C35.578,264,32,267.582,32,272z"/>
<path d="M64,32v32c0,4.418,3.578,8,8,8h368V56H80V40h360V24H72C67.578,24,64,27.582,64,32z"/>
<g>
</g>
<g>
</g>
<g>
</g>
<g>
</g>
<g>
</g>
<g>
</g>
<g>
</g>
<g>
</g>
<g>
</g>
<g>
</g>
<g>
</g>
<g>
</g>
<g>
</g>
<g>
</g>
<g>
</g>
</svg>
